<svg xmlns="http://www.w3.org/2000/svg" width="449" height="449" fill="none" viewBox="0 0 449 449"><rect width="449" height="449" fill="#fff" rx="60"/><path fill="#754FDF" d="M304.878 398.35C302.985 398.35 301.092 397.86 299.397 396.877L219.019 350.359C215.633 348.399 213.548 344.778 213.548 340.861C213.548 336.943 215.633 333.325 219.024 331.365L293.958 288.025V201.395C293.958 197.477 296.044 193.856 299.434 191.896C302.819 189.938 306.991 189.936 310.387 191.893L390.77 238.353C394.161 240.313 396.246 243.933 396.246 247.854V340.863C396.246 344.781 394.161 348.402 390.77 350.362L310.354 396.88C308.659 397.86 306.771 398.35 304.878 398.35ZM246.394 340.866L304.878 374.715L374.341 334.533V254.187L315.863 220.389V294.375C315.863 298.662 313.408 302.374 309.83 304.178L246.394 340.866Z"/><path fill="#754FDF" d="M224.5 351.832C222.607 351.832 220.719 351.342 219.024 350.362C215.633 348.404 213.548 344.781 213.548 340.863V340.627C213.548 336.71 215.633 333.089 219.024 331.129L299.434 284.611C302.825 282.651 306.996 282.651 310.387 284.611C313.777 286.568 315.863 290.189 315.863 294.109C315.863 298.191 313.638 301.87 310.333 303.838L310.355 303.873L229.976 350.362C228.281 351.342 226.393 351.832 224.5 351.832Z"/><path fill="#754FDF" d="M224.5 351.845C218.452 351.845 213.548 346.95 213.548 340.893C213.548 334.835 218.452 329.793 224.5 329.793C230.549 329.793 235.453 334.57 235.453 340.628V340.863C235.453 346.921 230.549 351.845 224.5 351.845Z"/><path fill="#754FDF" d="M304.765 212.248C302.867 212.248 300.969 211.753 299.268 210.765L224.436 167.251L149.416 210.376C146.025 212.331 141.854 212.32 138.464 210.35C135.078 208.384 132.998 204.758 133.009 200.84L133.223 107.895C133.233 103.975 135.33 100.357 138.72 98.4072L219.264 52.106C222.665 50.1565 226.837 50.1646 230.217 52.1301L310.53 98.8143C313.916 100.783 315.996 104.414 315.985 108.334L315.718 201.312C315.707 205.229 313.611 208.845 310.215 210.794C308.53 211.763 306.648 212.248 304.765 212.248ZM230.463 145.391L293.867 182.258L294.064 114.609L224.687 74.2819L155.111 114.279L154.956 181.897L219.024 145.067C222.714 142.954 227.126 143.211 230.463 145.391Z"/><path fill="#754FDF" d="M304.562 212.363C302.664 212.363 300.765 211.868 299.065 210.882L218.751 164.198C215.36 162.227 213.28 158.591 213.296 154.668C213.312 150.742 215.419 147.124 218.826 145.18C222.339 143.182 226.634 143.262 229.976 145.148L229.992 145.118L310.263 191.794C313.659 193.768 315.739 197.41 315.718 201.341C315.696 205.272 313.573 208.89 310.161 210.826L309.958 210.941C308.284 211.889 306.423 212.363 304.562 212.363Z"/><path fill="#754FDF" d="M310.429 210.668L304.562 201.395L299.166 191.848L299.369 191.733C304.594 188.766 311.22 190.565 314.242 195.75C317.258 200.937 315.568 207.581 310.429 210.668Z"/><path fill="#754FDF" d="M144.116 398.35C142.223 398.35 140.335 397.86 138.64 396.88L58.2301 350.362C54.8396 348.402 52.7539 344.781 52.7539 340.863V247.854C52.7539 243.933 54.8396 240.313 58.2301 238.353L138.608 191.893C142.004 189.936 146.175 189.938 149.561 191.896C152.951 193.856 155.037 197.477 155.037 201.395V288.025L229.976 331.365C233.367 333.325 235.452 336.943 235.452 340.861C235.452 344.778 233.367 348.402 229.981 350.359L149.598 396.877C147.903 397.86 146.01 398.35 144.116 398.35ZM74.6587 334.533L144.116 374.715L202.606 340.866L138.94 304.047C135.49 302.199 133.132 298.56 133.132 294.375V220.389L74.6587 254.187V334.533V334.533Z"/><path fill="#754FDF" d="M224.329 351.773C222.494 351.773 220.665 351.312 219.024 350.362L138.94 304.047C135.49 302.199 133.132 298.56 133.132 294.375C133.132 290.454 135.217 286.702 138.608 284.742C142.004 282.79 146.175 282.651 149.56 284.611L229.976 331.129C233.366 333.089 235.452 336.71 235.452 340.628C235.452 344.545 233.366 348.286 229.976 350.244C228.233 351.253 226.275 351.773 224.329 351.773Z"/><path fill="#754FDF" d="M224.5 351.73C218.452 351.73 213.548 346.95 213.548 340.893V340.863C213.548 334.806 218.452 329.777 224.5 329.777C230.549 329.777 235.453 334.57 235.453 340.628C235.453 346.685 230.549 351.73 224.5 351.73Z"/></svg>